<mxfile host="Electron" modified="2024-06-11T01:27:54.584Z" agent="Mozilla/5.0 (Macintosh; Intel Mac OS X 10_15_7) AppleWebKit/537.36 (KHTML, like Gecko) draw.io/22.1.18 Chrome/120.0.6099.199 Electron/28.1.2 Safari/537.36" etag="d6_seq45bM-Ouptb6hWP" version="22.1.18" type="device">
  <diagram id="tzVBTgvMSX6yTzznpiAT" name="第 1 页">
    <mxGraphModel dx="852" dy="553" grid="0" gridSize="10" guides="1" tooltips="1" connect="1" arrows="1" fold="1" page="1" pageScale="1" pageWidth="827" pageHeight="1169" math="0" shadow="0">
      <root>
        <mxCell id="0" />
        <mxCell id="1" parent="0" />
        <mxCell id="YWVTZ9F8FD4MGOE_uDyc-1" value="" style="rounded=0;whiteSpace=wrap;html=1;strokeColor=none;fillColor=none;" parent="1" vertex="1">
          <mxGeometry x="41" y="77" width="764" height="366" as="geometry" />
        </mxCell>
        <mxCell id="dEyQZCr5xavWeVjOQAk4-9" value="" style="rounded=0;whiteSpace=wrap;html=1;fontSize=18;fillColor=none;fontFamily=Times New Roman;" parent="1" vertex="1">
          <mxGeometry x="71" y="140" width="204" height="272" as="geometry" />
        </mxCell>
        <mxCell id="dEyQZCr5xavWeVjOQAk4-1" value="Driver" style="rounded=0;whiteSpace=wrap;html=1;fontSize=18;fillColor=#f5f5f5;fontColor=#333333;strokeColor=#666666;fontFamily=Times New Roman;" parent="1" vertex="1">
          <mxGeometry x="77" y="150" width="90" height="40" as="geometry" />
        </mxCell>
        <mxCell id="dEyQZCr5xavWeVjOQAk4-3" value="Worker" style="rounded=0;whiteSpace=wrap;html=1;fontSize=18;fillColor=#f5f5f5;fontColor=#333333;strokeColor=#666666;fontFamily=Times New Roman;" parent="1" vertex="1">
          <mxGeometry x="177" y="150" width="90" height="40" as="geometry" />
        </mxCell>
        <mxCell id="dEyQZCr5xavWeVjOQAk4-4" value="Scheduler" style="rounded=0;whiteSpace=wrap;html=1;fontSize=18;fontFamily=Times New Roman;" parent="1" vertex="1">
          <mxGeometry x="99" y="238" width="150" height="40" as="geometry" />
        </mxCell>
        <mxCell id="dEyQZCr5xavWeVjOQAk4-5" value="Object Store" style="rounded=0;whiteSpace=wrap;html=1;fontSize=18;fontFamily=Times New Roman;" parent="1" vertex="1">
          <mxGeometry x="99" y="288" width="150" height="40" as="geometry" />
        </mxCell>
        <mxCell id="dEyQZCr5xavWeVjOQAk4-6" value="Global Control Service" style="rounded=0;whiteSpace=wrap;html=1;fontSize=18;fillColor=#90C9E6;strokeColor=#36393d;fontFamily=Times New Roman;" parent="1" vertex="1">
          <mxGeometry x="77" y="350" width="190" height="50" as="geometry" />
        </mxCell>
        <mxCell id="dEyQZCr5xavWeVjOQAk4-7" value="" style="rounded=0;whiteSpace=wrap;html=1;fillColor=none;fontSize=18;fontFamily=Times New Roman;" parent="1" vertex="1">
          <mxGeometry x="77" y="207" width="190" height="130" as="geometry" />
        </mxCell>
        <mxCell id="dEyQZCr5xavWeVjOQAk4-8" value="Raylet" style="text;html=1;strokeColor=none;fillColor=none;align=center;verticalAlign=middle;whiteSpace=wrap;rounded=0;fontSize=18;fontFamily=Times New Roman;" parent="1" vertex="1">
          <mxGeometry x="142" y="207" width="60" height="30" as="geometry" />
        </mxCell>
        <mxCell id="dEyQZCr5xavWeVjOQAk4-10" value="头节点" style="text;html=1;strokeColor=none;fillColor=none;align=center;verticalAlign=middle;whiteSpace=wrap;rounded=0;fontSize=18;fontFamily=Times New Roman;" parent="1" vertex="1">
          <mxGeometry x="71" y="100" width="70" height="30" as="geometry" />
        </mxCell>
        <mxCell id="dEyQZCr5xavWeVjOQAk4-11" value="" style="rounded=0;whiteSpace=wrap;html=1;fontSize=18;fillColor=none;fontFamily=Times New Roman;" parent="1" vertex="1">
          <mxGeometry x="321" y="140" width="204" height="200" as="geometry" />
        </mxCell>
        <mxCell id="dEyQZCr5xavWeVjOQAk4-12" value="Driver" style="rounded=0;whiteSpace=wrap;html=1;fontSize=18;fillColor=#f5f5f5;fontColor=#333333;strokeColor=#666666;fontFamily=Times New Roman;" parent="1" vertex="1">
          <mxGeometry x="327" y="148" width="90" height="40" as="geometry" />
        </mxCell>
        <mxCell id="dEyQZCr5xavWeVjOQAk4-13" value="Worker" style="rounded=0;whiteSpace=wrap;html=1;fontSize=18;fillColor=#f5f5f5;fontColor=#333333;strokeColor=#666666;fontFamily=Times New Roman;" parent="1" vertex="1">
          <mxGeometry x="427" y="148" width="90" height="40" as="geometry" />
        </mxCell>
        <mxCell id="dEyQZCr5xavWeVjOQAk4-14" value="Scheduler" style="rounded=0;whiteSpace=wrap;html=1;fontSize=18;fontFamily=Times New Roman;" parent="1" vertex="1">
          <mxGeometry x="349" y="236" width="150" height="40" as="geometry" />
        </mxCell>
        <mxCell id="dEyQZCr5xavWeVjOQAk4-15" value="Object Store" style="rounded=0;whiteSpace=wrap;html=1;fontSize=18;fontFamily=Times New Roman;" parent="1" vertex="1">
          <mxGeometry x="349" y="286" width="150" height="40" as="geometry" />
        </mxCell>
        <mxCell id="dEyQZCr5xavWeVjOQAk4-17" value="" style="rounded=0;whiteSpace=wrap;html=1;fillColor=none;fontSize=18;fontFamily=Times New Roman;" parent="1" vertex="1">
          <mxGeometry x="327" y="205" width="190" height="130" as="geometry" />
        </mxCell>
        <mxCell id="dEyQZCr5xavWeVjOQAk4-18" value="Raylet" style="text;html=1;strokeColor=none;fillColor=none;align=center;verticalAlign=middle;whiteSpace=wrap;rounded=0;fontSize=18;fontFamily=Times New Roman;" parent="1" vertex="1">
          <mxGeometry x="392" y="205" width="60" height="30" as="geometry" />
        </mxCell>
        <mxCell id="dEyQZCr5xavWeVjOQAk4-19" value="工作节点" style="text;html=1;strokeColor=none;fillColor=none;align=center;verticalAlign=middle;whiteSpace=wrap;rounded=0;fontSize=18;fontFamily=Times New Roman;" parent="1" vertex="1">
          <mxGeometry x="321" y="100" width="90" height="30" as="geometry" />
        </mxCell>
        <mxCell id="dEyQZCr5xavWeVjOQAk4-20" value="" style="rounded=0;whiteSpace=wrap;html=1;fontSize=18;fillColor=none;fontFamily=Times New Roman;" parent="1" vertex="1">
          <mxGeometry x="571" y="140" width="204" height="200" as="geometry" />
        </mxCell>
        <mxCell id="dEyQZCr5xavWeVjOQAk4-21" value="Driver" style="rounded=0;whiteSpace=wrap;html=1;fontSize=18;fillColor=#f5f5f5;fontColor=#333333;strokeColor=#666666;fontFamily=Times New Roman;" parent="1" vertex="1">
          <mxGeometry x="577" y="148" width="90" height="40" as="geometry" />
        </mxCell>
        <mxCell id="dEyQZCr5xavWeVjOQAk4-22" value="Worker" style="rounded=0;whiteSpace=wrap;html=1;fontSize=18;fillColor=#f5f5f5;fontColor=#333333;strokeColor=#666666;fontFamily=Times New Roman;" parent="1" vertex="1">
          <mxGeometry x="677" y="148" width="90" height="40" as="geometry" />
        </mxCell>
        <mxCell id="dEyQZCr5xavWeVjOQAk4-23" value="Scheduler" style="rounded=0;whiteSpace=wrap;html=1;fontSize=18;fontFamily=Times New Roman;" parent="1" vertex="1">
          <mxGeometry x="599" y="236" width="150" height="40" as="geometry" />
        </mxCell>
        <mxCell id="dEyQZCr5xavWeVjOQAk4-24" value="Object Store" style="rounded=0;whiteSpace=wrap;html=1;fontSize=18;fontFamily=Times New Roman;" parent="1" vertex="1">
          <mxGeometry x="599" y="286" width="150" height="40" as="geometry" />
        </mxCell>
        <mxCell id="dEyQZCr5xavWeVjOQAk4-25" value="" style="rounded=0;whiteSpace=wrap;html=1;fillColor=none;fontSize=18;fontFamily=Times New Roman;" parent="1" vertex="1">
          <mxGeometry x="577" y="205" width="190" height="130" as="geometry" />
        </mxCell>
        <mxCell id="dEyQZCr5xavWeVjOQAk4-26" value="Raylet" style="text;html=1;strokeColor=none;fillColor=none;align=center;verticalAlign=middle;whiteSpace=wrap;rounded=0;fontSize=18;fontFamily=Times New Roman;" parent="1" vertex="1">
          <mxGeometry x="642" y="205" width="60" height="30" as="geometry" />
        </mxCell>
        <mxCell id="dEyQZCr5xavWeVjOQAk4-27" value="工作结点" style="text;html=1;strokeColor=none;fillColor=none;align=center;verticalAlign=middle;whiteSpace=wrap;rounded=0;fontSize=18;fontFamily=Times New Roman;" parent="1" vertex="1">
          <mxGeometry x="571" y="100" width="90" height="30" as="geometry" />
        </mxCell>
      </root>
    </mxGraphModel>
  </diagram>
</mxfile>
